<svg width="32" height="32" viewBox="0 0 32 32" fill="none" xmlns="http://www.w3.org/2000/svg">
<path d="M12.3095 10.6631L6.32817 21.3374H0.879272L5.54912 13.0029C6.27386 11.7101 8.08036 10.6631 9.58504 10.6631H12.3095ZM25.6717 13.3314C25.6717 11.8579 26.8915 10.6631 28.3962 10.6631C29.9009 10.6631 31.1206 11.8579 31.1206 13.3314C31.1206 14.8058 29.9009 16.0007 28.3962 16.0007C26.8915 16.0007 25.6717 14.8058 25.6717 13.3314ZM13.3307 10.6631H18.7796L12.7983 21.3374H7.34939L13.3307 10.6631ZM19.767 10.6631H25.2159L20.5452 18.9985C19.8213 20.2904 18.0148 21.3374 16.5101 21.3374H13.7857L19.767 10.6631Z" fill="white"/>
</svg>
